<svg width="1600" height="1000" viewBox="0 0 1600 1000" xmlns="http://www.w3.org/2000/svg">
  <defs>
    <linearGradient id="bg" x1="0" x2="1" y1="0" y2="1">
      <stop offset="0" stop-color="#f8fbff"/>
      <stop offset="1" stop-color="#eef4fb"/>
    </linearGradient>
    <linearGradient id="navy" x1="0" x2="1">
      <stop offset="0" stop-color="#082452"/>
      <stop offset="1" stop-color="#0b3a7a"/>
    </linearGradient>
    <filter id="shadow" x="-20%" y="-20%" width="140%" height="140%">
      <feDropShadow dx="0" dy="8" stdDeviation="10" flood-color="#0b1f3a" flood-opacity="0.15"/>
    </filter>
    <style>
      .title{font-family:Arial,'Noto Sans KR',sans-serif;font-size:42px;font-weight:800;fill:#082452}
      .subtitle{font-family:Arial,'Noto Sans KR',sans-serif;font-size:20px;fill:#1c2e45}
      .step-title{font-family:Arial,'Noto Sans KR',sans-serif;font-size:20px;font-weight:800;fill:#082452}
      .body{font-family:Arial,'Noto Sans KR',sans-serif;font-size:15px;fill:#1d2b3a}
      .small{font-family:Arial,'Noto Sans KR',sans-serif;font-size:13px;fill:#40536a}
      .num{font-family:Arial,'Noto Sans KR',sans-serif;font-size:22px;font-weight:800;fill:white}
      .badge{fill:url(#navy)}
      .card{fill:white;stroke:#b9c9de;stroke-width:1.2;rx:14;filter:url(#shadow)}
      .bar{fill:#082452}
      .line{stroke:#4d73a4;stroke-width:4;fill:none;marker-end:url(#arrow)}
      .thin{stroke:#8aa6c8;stroke-width:1.4;fill:none}
      .muted{fill:#f4f7fb;stroke:#d5e0ef;stroke-width:1}
      .accent{fill:#4f7cc4}
      .green{fill:#2f9b66}.orange{fill:#f0a23b}.red{fill:#e25c4a}
    </style>
    <marker id="arrow" viewBox="0 0 10 10" refX="9" refY="5" markerWidth="8" markerHeight="8" orient="auto-start-reverse">
      <path d="M0 0 L10 5 L0 10 z" fill="#4d73a4"/>
    </marker>
  </defs>
  <rect width="1600" height="1000" fill="url(#bg)"/>
  <text x="800" y="58" text-anchor="middle" class="title">LIGHT ONE 촬영·분석·점수화 흐름도</text>
  <text x="800" y="94" text-anchor="middle" class="subtitle">동일 조건 촬영 → 품질검사(QC) → 랜드마크 추출 → 변화량 계산 → 점수화 → PT 피드백</text>

  <!-- step cards -->
  <g transform="translate(35,130)">
    <rect class="card" width="235" height="420"/>
    <circle class="badge" cx="34" cy="36" r="20"/><text x="34" y="44" text-anchor="middle" class="num">1</text>
    <text x="65" y="43" class="step-title">촬영 조건 단순화</text>
    <g transform="translate(28,92)">
      <rect class="muted" width="180" height="58" rx="8"/><text x="68" y="34" class="body">주 1회 동일 시간대</text>
      <rect class="muted" y="78" width="180" height="58" rx="8"/><text x="68" y="112" class="body">같은 공간·조명</text>
      <rect class="muted" y="156" width="180" height="58" rx="8"/><text x="68" y="190" class="body">카메라 고정</text>
      <rect class="muted" y="234" width="180" height="58" rx="8"/><text x="68" y="268" class="body">변수 최소화</text>
      <text x="0" y="335" class="small">목표: 반복 측정 오차 감소</text>
    </g>
    <rect class="bar" x="0" y="370" width="235" height="50" rx="0"/><text x="118" y="402" text-anchor="middle" fill="white" font-family="Arial,'Noto Sans KR'" font-size="16" font-weight="700">정확도보다 일관성 우선</text>
  </g>
  <path class="line" d="M285 340 L310 340"/>

  <g transform="translate(320,130)">
    <rect class="card" width="235" height="420"/>
    <circle class="badge" cx="34" cy="36" r="20"/><text x="34" y="44" text-anchor="middle" class="num">2</text>
    <text x="65" y="43" class="step-title">기준선에 양발 위치</text>
    <rect x="45" y="95" width="145" height="230" rx="8" fill="#eef1f5" stroke="#ccd6e2"/>
    <line x1="117" y1="95" x2="117" y2="325" stroke="#b9c3cf" stroke-dasharray="6 6"/>
    <line x1="45" y1="275" x2="190" y2="275" stroke="#a3afbd" stroke-width="2"/>
    <circle cx="117" cy="170" r="22" fill="#18212b"/>
    <rect x="102" y="194" width="30" height="72" rx="14" fill="#1f2b36"/>
    <line x1="103" y1="267" x2="95" y2="308" stroke="#1f2b36" stroke-width="8" stroke-linecap="round"/>
    <line x1="132" y1="267" x2="140" y2="308" stroke="#1f2b36" stroke-width="8" stroke-linecap="round"/>
    <line x1="92" y1="313" x2="112" y2="313" stroke="#cc6e4b" stroke-width="3"/>
    <line x1="137" y1="313" x2="157" y2="313" stroke="#cc6e4b" stroke-width="3"/>
    <text x="28" y="354" class="body">• 발 위치·간격 고정</text>
    <text x="28" y="382" class="body">• 편한 자연 기립 자세</text>
    <rect class="bar" x="0" y="370" width="235" height="50" rx="0"/><text x="118" y="402" text-anchor="middle" fill="white" font-family="Arial,'Noto Sans KR'" font-size="16" font-weight="700">조건 통제</text>
  </g>
  <path class="line" d="M570 340 L595 340"/>

  <g transform="translate(605,130)">
    <rect class="card" width="235" height="420"/>
    <circle class="badge" cx="34" cy="36" r="20"/><text x="34" y="44" text-anchor="middle" class="num">3</text>
    <text x="65" y="43" class="step-title">정면·측면 4컷 촬영</text>
    <text x="44" y="94" class="body" font-weight="700">정면</text>
    <rect class="muted" x="35" y="112" width="75" height="90" rx="8"/><text x="72" y="164" text-anchor="middle" class="small">상체</text>
    <rect class="muted" x="125" y="112" width="75" height="90" rx="8"/><text x="162" y="164" text-anchor="middle" class="small">하체</text>
    <text x="44" y="236" class="body" font-weight="700">측면</text>
    <rect class="muted" x="35" y="254" width="75" height="90" rx="8"/><text x="72" y="306" text-anchor="middle" class="small">상체</text>
    <rect class="muted" x="125" y="254" width="75" height="90" rx="8"/><text x="162" y="306" text-anchor="middle" class="small">하체</text>
    <text x="26" y="365" class="body">• 전신 균형을 다각도로 기록</text>
    <rect class="bar" x="0" y="370" width="235" height="50" rx="0"/><text x="118" y="402" text-anchor="middle" fill="white" font-family="Arial,'Noto Sans KR'" font-size="16" font-weight="700">기록 단위 표준화</text>
  </g>
  <path class="line" d="M855 340 L880 340"/>

  <g transform="translate(890,130)">
    <rect class="card" width="235" height="420"/>
    <circle class="badge" cx="34" cy="36" r="20"/><text x="34" y="44" text-anchor="middle" class="num">4</text>
    <text x="65" y="43" class="step-title">분석 항목 추출</text>
    <circle cx="75" cy="145" r="25" fill="#203347"/>
    <line class="thin" x1="75" y1="171" x2="75" y2="270"/>
    <line class="thin" x1="42" y1="205" x2="108" y2="205"/>
    <line class="thin" x1="45" y1="270" x2="105" y2="270"/>
    <line class="thin" x1="58" y1="270" x2="50" y2="335"/>
    <line class="thin" x1="92" y1="270" x2="100" y2="335"/>
    <circle cx="42" cy="205" r="5" class="orange"/><circle cx="108" cy="205" r="5" class="orange"/><circle cx="45" cy="270" r="5" class="orange"/><circle cx="105" cy="270" r="5" class="orange"/>
    <g transform="translate(118,102)">
      <rect class="muted" width="88" height="32" rx="6"/><text x="44" y="22" text-anchor="middle" class="small">어깨 기울기</text>
      <rect class="muted" y="42" width="88" height="32" rx="6"/><text x="44" y="64" text-anchor="middle" class="small">골반 기울기</text>
      <rect class="muted" y="84" width="88" height="32" rx="6"/><text x="44" y="106" text-anchor="middle" class="small">척추 정렬도</text>
      <rect class="muted" y="126" width="88" height="32" rx="6"/><text x="44" y="148" text-anchor="middle" class="small">무릎 정렬도</text>
      <rect class="muted" y="168" width="88" height="32" rx="6"/><text x="44" y="190" text-anchor="middle" class="small">좌우 편차</text>
    </g>
    <rect class="bar" x="0" y="370" width="235" height="50" rx="0"/><text x="118" y="402" text-anchor="middle" fill="white" font-family="Arial,'Noto Sans KR'" font-size="16" font-weight="700">기울기·편차·오차 기록</text>
  </g>
  <path class="line" d="M1140 340 L1165 340"/>

  <g transform="translate(1175,130)">
    <rect class="card" width="235" height="420"/>
    <circle class="badge" cx="34" cy="36" r="20"/><text x="34" y="44" text-anchor="middle" class="num">5</text>
    <text x="65" y="43" class="step-title">수치화 및 점수화</text>
    <rect class="muted" x="24" y="96" width="188" height="52" rx="8"/><text x="118" y="128" text-anchor="middle" class="body">변화량 수치화</text>
    <rect class="muted" x="24" y="164" width="188" height="52" rx="8"/><text x="118" y="196" text-anchor="middle" class="body">항목별 가중치</text>
    <rect class="muted" x="24" y="232" width="188" height="52" rx="8"/><text x="118" y="264" text-anchor="middle" class="body">종합 점수 산출</text>
    <circle cx="118" cy="330" r="48" fill="none" stroke="#c9d5e7" stroke-width="14"/>
    <path d="M118 282 A48 48 0 1 1 75 352" fill="none" stroke="#4f7cc4" stroke-width="14" stroke-linecap="round"/>
    <text x="118" y="334" text-anchor="middle" font-family="Arial" font-size="44" font-weight="800" fill="#082452">82</text>
    <text x="118" y="360" text-anchor="middle" class="small">/100</text>
    <rect class="bar" x="0" y="370" width="235" height="50" rx="0"/><text x="118" y="402" text-anchor="middle" fill="white" font-family="Arial,'Noto Sans KR'" font-size="16" font-weight="700">변화를 한눈에 파악</text>
  </g>
  <path class="line" d="M1425 340 L1450 340"/>

  <g transform="translate(1455,130)">
    <rect class="card" width="110" height="420"/>
    <circle class="badge" cx="34" cy="36" r="20"/><text x="34" y="44" text-anchor="middle" class="num">6</text>
    <text x="18" y="86" class="step-title">피드백</text>
    <text x="16" y="130" class="small">주차별</text><text x="16" y="150" class="small">변화 추적</text>
    <polyline points="18,250 45,230 70,220 95,190" stroke="#4f7cc4" stroke-width="4" fill="none"/>
    <circle cx="18" cy="250" r="5" class="accent"/><circle cx="45" cy="230" r="5" class="accent"/><circle cx="70" cy="220" r="5" class="accent"/><circle cx="95" cy="190" r="5" class="accent"/>
    <text x="16" y="302" class="small">PT 상담</text><text x="16" y="322" class="small">운동 개입</text><text x="16" y="342" class="small">리포트</text>
    <rect class="bar" x="0" y="370" width="110" height="50" rx="0"/><text x="55" y="402" text-anchor="middle" fill="white" font-family="Arial,'Noto Sans KR'" font-size="14" font-weight="700">맞춤 피드백</text>
  </g>

  <!-- bottom sections -->
  <g transform="translate(35,610)">
    <rect class="card" width="450" height="320"/>
    <rect class="badge" x="0" y="0" width="160" height="40" rx="8"/><text x="80" y="27" text-anchor="middle" fill="white" font-family="Arial,'Noto Sans KR'" font-size="17" font-weight="700">분석 항목 예시</text>
    <g transform="translate(25,70)">
      <rect class="muted" width="120" height="90" rx="8"/><text x="60" y="50" text-anchor="middle" class="body">어깨 기울기</text>
      <rect class="muted" x="145" width="120" height="90" rx="8"/><text x="205" y="50" text-anchor="middle" class="body">골반 기울기</text>
      <rect class="muted" x="290" width="120" height="90" rx="8"/><text x="350" y="50" text-anchor="middle" class="body">척추 정렬도</text>
      <rect class="muted" y="115" width="120" height="90" rx="8"/><text x="60" y="165" text-anchor="middle" class="body">무릎 정렬도</text>
      <rect class="muted" x="145" y="115" width="120" height="90" rx="8"/><text x="205" y="165" text-anchor="middle" class="body">발목 정렬도</text>
      <rect class="muted" x="290" y="115" width="120" height="90" rx="8"/><text x="350" y="165" text-anchor="middle" class="body">좌우 편차</text>
    </g>
    <text x="25" y="292" class="small">※ 항목은 MVP 검증 후 추가·변경 가능</text>
  </g>

  <g transform="translate(515,610)">
    <rect class="card" width="520" height="320"/>
    <rect class="badge" x="0" y="0" width="160" height="40" rx="8"/><text x="80" y="27" text-anchor="middle" fill="white" font-family="Arial,'Noto Sans KR'" font-size="17" font-weight="700">점수화 예시</text>
    <line x1="35" y1="90" x2="325" y2="90" stroke="#d1dcea"/><line x1="35" y1="130" x2="325" y2="130" stroke="#d1dcea"/><line x1="35" y1="170" x2="325" y2="170" stroke="#d1dcea"/><line x1="35" y1="210" x2="325" y2="210" stroke="#d1dcea"/><line x1="35" y1="250" x2="325" y2="250" stroke="#d1dcea"/>
    <text x="50" y="75" class="small">항목</text><text x="160" y="75" class="small">변화량</text><text x="250" y="75" class="small">점수</text>
    <text x="50" y="115" class="body">어깨</text><text x="160" y="115" class="body">+0.1°</text><text x="250" y="115" class="body">92</text>
    <text x="50" y="155" class="body">골반</text><text x="160" y="155" class="body">+0.5°</text><text x="250" y="155" class="body">83</text>
    <text x="50" y="195" class="body">무릎</text><text x="160" y="195" class="body">-0.8mm</text><text x="250" y="195" class="body">90</text>
    <text x="50" y="235" class="body">좌우</text><text x="160" y="235" class="body">-1.2%</text><text x="250" y="235" class="body">92</text>
    <circle cx="405" cy="160" r="62" fill="none" stroke="#c9d5e7" stroke-width="16"/><path d="M405 98 A62 62 0 1 1 350 190" fill="none" stroke="#2f9b66" stroke-width="16" stroke-linecap="round"/>
    <text x="405" y="167" text-anchor="middle" font-family="Arial" font-size="50" font-weight="800" fill="#082452">82</text><text x="405" y="198" text-anchor="middle" class="small">종합 점수</text>
  </g>

  <g transform="translate(1065,610)">
    <rect class="card" width="500" height="320"/>
    <rect class="badge" x="0" y="0" width="225" height="40" rx="8"/><text x="112" y="27" text-anchor="middle" fill="white" font-family="Arial,'Noto Sans KR'" font-size="17" font-weight="700">변화 추적 대시보드 예시</text>
    <line x1="55" y1="250" x2="430" y2="250" stroke="#ccd6e2"/><line x1="55" y1="80" x2="55" y2="250" stroke="#ccd6e2"/>
    <polyline points="70,210 170,190 270,165 370,150" stroke="#4f7cc4" stroke-width="4" fill="none"/>
    <polyline points="70,225 170,215 270,205 370,198" stroke="#56a68e" stroke-width="4" fill="none"/>
    <circle cx="70" cy="210" r="6" class="accent"/><circle cx="170" cy="190" r="6" class="accent"/><circle cx="270" cy="165" r="6" class="accent"/><circle cx="370" cy="150" r="6" class="accent"/>
    <text x="70" y="275" class="small">1주차</text><text x="170" y="275" class="small">2주차</text><text x="270" y="275" class="small">3주차</text><text x="370" y="275" class="small">4주차</text>
    <text x="300" y="95" class="small">어깨/골반/좌우 편차 추세</text>
    <text x="55" y="55" class="body" font-weight="700">PT 피드백 연결</text>
  </g>
</svg>
